<svg width="24" height="20" viewBox="0 0 24 20" fill="none" xmlns="http://www.w3.org/2000/svg">
<path d="M21.0571 5.18114C21.0664 5.39235 21.0664 5.59395 21.0664 5.80515C21.0756 12.2084 16.3712 19.6004 7.76793 19.6004C5.23048 19.6004 2.73933 18.842 0.600098 17.4212C0.970528 17.4692 1.34096 17.4884 1.71139 17.4884C3.81358 17.4884 5.86021 16.7588 7.51789 15.4052C5.51756 15.3668 3.75802 14.0132 3.14681 12.0356C3.85063 12.1796 4.57296 12.1508 5.25826 11.9492C3.08198 11.5076 1.51691 9.52036 1.50765 7.20675C1.50765 7.18755 1.50765 7.16835 1.50765 7.14915C2.15591 7.52355 2.88751 7.73475 3.62837 7.75395C1.58174 6.33315 0.942746 3.50114 2.18369 1.28353C4.5637 4.31714 8.06427 6.15075 11.8241 6.35235C11.4445 4.67234 11.9631 2.90594 13.1762 1.71553C15.0561 -0.118073 18.0196 -0.0220723 19.7977 1.92673C20.8441 1.71553 21.8535 1.31233 22.7704 0.74593C22.4185 1.86913 21.6869 2.81954 20.7145 3.42434C21.6406 3.30914 22.5481 3.04994 23.4001 2.66594C22.7704 3.64514 21.9739 4.48994 21.0571 5.18114Z" fill="white"/>
</svg>
